<svg width="20" height="19" viewBox="0 0 20 19" fill="none" xmlns="http://www.w3.org/2000/svg">
<path fill-rule="evenodd" clip-rule="evenodd" d="M13.2501 3.73113C13.1485 3.62453 13.0073 3.5648 12.8601 3.56613C12.7096 3.56285 12.5645 3.62268 12.4601 3.73113L2.64011 13.5631C2.41489 13.81 2.24449 14.1017 2.14011 14.4191L1.02011 18.5481C0.980196 18.6612 0.99497 18.7864 1.06011 18.8871C1.12207 18.9607 1.21398 19.0022 1.31011 19.0001C1.35747 18.9999 1.40457 18.9931 1.45011 18.9801L5.57011 17.8541C5.89057 17.7539 6.18446 17.583 6.43011 17.3541L16.2501 7.52113C16.4655 7.29796 16.4655 6.94431 16.2501 6.72113L13.2501 3.73113ZM19.2001 0.773134C18.7056 0.278135 18.0347 0 17.3351 0C16.6354 0 15.9645 0.278135 15.4701 0.773134L15.0501 1.19513C14.8755 1.33973 14.7672 1.54909 14.7501 1.77513C14.7471 1.86033 14.7797 1.94293 14.8401 2.00313L17.9401 5.10913C18.0162 5.17862 18.1171 5.21464 18.2201 5.20913C18.4373 5.19179 18.6387 5.08892 18.7801 4.92313L19.2001 4.50113C20.2268 3.47056 20.2268 1.80371 19.2001 0.773134Z" fill="#CACACA"/>
</svg>
