<svg width="20" height="20" viewBox="0 0 20 20" fill="none" xmlns="http://www.w3.org/2000/svg">
<path fill-rule="evenodd" clip-rule="evenodd" d="M20 11.25V8.74998L17.3 8.29998C17.1132 7.50098 16.7956 6.73837 16.36 6.04298L17.96 3.81398L16.19 2.04598L13.96 3.63798C13.2626 3.20492 12.4992 2.88843 11.7 2.70098L11.25 0.000976562H8.75L8.3 2.70098C7.50071 2.88879 6.73737 3.20561 6.04 3.63898L3.81 2.04698L2.04 3.81498L3.64 6.04398C3.20425 6.73928 2.88662 7.50192 2.7 8.30098L0 8.75098V11.251L2.7 11.701C2.88683 12.5 3.20445 13.2626 3.64 13.958L2.04 16.188L3.81 17.955L6.04 16.362C6.73695 16.7957 7.50046 17.1119 8.3 17.298L8.75 19.998H11.25L11.7 17.298C12.4995 17.1119 13.263 16.7957 13.96 16.362L16.19 17.955L17.96 16.188L16.36 13.958C16.7953 13.2625 17.1129 12.4999 17.3 11.701L20 11.25ZM10 15C7.23858 15 5 12.7614 5 9.99998C5 7.23855 7.23858 4.99998 10 4.99998C12.7614 4.99998 15 7.23855 15 9.99998C15 12.7614 12.7614 15 10 15Z" fill="#8DA5B8"/>
</svg>
