<svg width="16" height="18" viewBox="0 0 16 18" fill="none" xmlns="http://www.w3.org/2000/svg">
<path d="M8.0096 4.21303L12.7319 8.4913C13.4805 9.16957 14.6899 9.16957 15.4385 8.4913C16.1872 7.81304 16.1872 6.71739 15.4385 6.03912L9.35333 0.508672C8.99468 0.183014 8.50777 0 8 0C7.49223 0 7.00532 0.183014 6.64667 0.508672L0.561488 6.03912C-0.187163 6.71739 -0.187163 7.81304 0.561488 8.4913C1.31014 9.16957 2.5195 9.16957 3.26815 8.4913L8.0096 4.21303Z" fill="#CACACA"/>
<path d="M8.0096 13.2131L12.7319 17.4913C13.0905 17.817 13.5774 18 14.0852 18C14.593 18 15.0799 17.817 15.4385 17.4913C16.1872 16.8131 16.1872 15.7174 15.4385 15.0391L9.35333 9.5087C8.60468 8.83043 7.39532 8.83043 6.64667 9.5087L0.561489 15.0218C-0.187161 15.7 -0.187161 16.7957 0.561489 17.4739C0.920135 17.7996 1.40705 17.9826 1.91482 17.9826C2.42259 17.9826 2.9095 17.7996 3.26815 17.4739L8.0096 13.2131Z" fill="#CACACA"/>
</svg>
